<svg id="Calque_1" data-name="Calque 1" xmlns="http://www.w3.org/2000/svg" xmlns:xlink="http://www.w3.org/1999/xlink" viewBox="0 0 1188.57 265.6"><defs><linearGradient id="Dégradé_sans_nom_20" x1="925.39" y1="647.1" x2="925.39" y2="381.5" gradientUnits="userSpaceOnUse"><stop offset="0.3" stop-color="#485dd8"/><stop offset="0.44" stop-color="#3c99e5"/><stop offset="0.64" stop-color="#b8d0ff"/></linearGradient></defs><path d="M880.29,449.7a7.79,7.79,0,0,0,6.4-3.4l25.8-33.2q4.39-5.6,4.4-11.2a11.74,11.74,0,0,0-3.9-9,12.76,12.76,0,0,0-8.9-3.6,11.57,11.57,0,0,0-6.5,1.9,13.36,13.36,0,0,0-4.7,5.9l-18.6,41.6a10.61,10.61,0,0,0-1,3.8,6.94,6.94,0,0,0,2.1,5.1A6.71,6.71,0,0,0,880.29,449.7Z" transform="translate(-331.1 -381.5)" style="fill:#b8d0ff"/><path d="M1019.69,449.7q8.6,0,13.8-4.7t5.2-12.7q0-6.6-4.6-10.2t-12-3.6a20.35,20.35,0,0,0-13.7,4.7,14.76,14.76,0,0,0-5.5,11.7q0,7,4.2,10.9T1019.69,449.7Z" transform="translate(-331.1 -381.5)" style="fill:#b8d0ff"/><path d="M1142.48,449.7q8.6,0,13.8-4.7t5.2-12.7q0-6.6-4.6-10.2t-12-3.6a20.37,20.37,0,0,0-13.7,4.7,14.76,14.76,0,0,0-5.5,11.7q0,7,4.2,10.9T1142.48,449.7Z" transform="translate(-331.1 -381.5)" style="fill:#b8d0ff"/><path d="M1518.17,519.9a4.63,4.63,0,0,0-4.1-2.4q-3,0-5.4,3-7,9-12.3,12.8t-13.5,3.8q-11.4,0-16.2-9.2,23.8-5.8,33.7-15.7a32.34,32.34,0,0,0,9.9-23.7q0-11.81-7-18.7t-18.6-6.9a40.47,40.47,0,0,0-23.3,7,47.54,47.54,0,0,0-16.1,18.9,57.82,57.82,0,0,0-5.8,25.7,63.46,63.46,0,0,0,.57,8.57,99.75,99.75,0,0,1-7.07,7.13q-5.49,4.9-9.5,4.9-5.79,0-5.8-8,0-5.6,3.8-23,4.41-20.4,4.41-28.2,0-13-13-13-6.62,0-14.5,4.6t-16.11,15.4q-8.19,10.8-14.8,28a145.2,145.2,0,0,1,2-14.8q1.2-6,3.2-14,3-11.21,3-14.4c0-1.87-.53-3.13-1.59-3.8s-2.94-1-5.61-1q-7.4,0-11.5,2.7a15,15,0,0,0-5.89,8.5,161.93,161.93,0,0,0-7.37,45.76,122.22,122.22,0,0,1-9.93,10.34q-5.51,4.9-9.5,4.9-5.8,0-5.8-8,0-5.6,3.8-23,4.4-20.4,4.4-28.2,0-13-13-13-6.6,0-14.5,4.6t-16.1,15.4q-8.2,10.8-14.8,28a142.43,142.43,0,0,1,2-14.8q1.2-6,3.2-14,3-11.21,3-14.4c0-1.87-.54-3.13-1.6-3.8s-2.94-1-5.6-1q-7.41,0-11.5,2.7a15,15,0,0,0-5.9,8.5,161.32,161.32,0,0,0-7.35,45.4,67.53,67.53,0,0,1-15.15,11.3q-11.51,6.3-20.5,6.3-14,0-19-9.2,23.59-5.8,33.5-15.7a32.34,32.34,0,0,0,9.9-23.7q0-11.81-7-18.7t-18.6-6.9a40.47,40.47,0,0,0-23.3,7,47.54,47.54,0,0,0-16.1,18.9,57.82,57.82,0,0,0-5.8,25.7,58.83,58.83,0,0,0,.61,8.58c-2.61,2.89-4.88,5.24-6.81,7q-5.4,5-9,5a5.58,5.58,0,0,1-5.4-3.2q-1.61-3.2-1.6-9.2,0-7.8,4.8-29.8,3.8-18.19,3.8-23.2,0-6.79-10.2-6.8-6.6,0-9.6,2.4t-4.8,8.8a214.93,214.93,0,0,0-5.9,26.3,168.67,168.67,0,0,0-2.22,19.76,64.31,64.31,0,0,1-13.38,10.64q-9.49,5.51-17.7,5.5-20.2,0-20.2-23.2a47.24,47.24,0,0,1,2.4-15.4,29.09,29.09,0,0,1,6.4-11.1q4-4.1,8.6-4.1a4.82,4.82,0,0,1,3.7,1.4,5.65,5.65,0,0,1,1.3,4,17.69,17.69,0,0,1-1,5.6c-.13.53-.33,1.4-.6,2.6a14.76,14.76,0,0,0-.4,3.2,6,6,0,0,0,2.3,5,9.62,9.62,0,0,0,6.1,1.8q6,0,9.7-5.8a25.85,25.85,0,0,0,3.7-14.2q0-10.2-6.1-16.7t-17.1-6.5a38.78,38.78,0,0,0-21.4,6.6,48.8,48.8,0,0,0-16.6,18.8q-6.41,12.19-6.4,28.4a55.51,55.51,0,0,0,.42,6.82q-3.68,4-6.41,6.58-5.4,5-9,5a5.56,5.56,0,0,1-5.4-3.2q-1.61-3.2-1.6-9.2,0-7.8,4.8-29.8,3.8-18.19,3.8-23.2,0-6.79-10.2-6.8-6.6,0-9.6,2.4t-4.8,8.8a214.93,214.93,0,0,0-5.9,26.3,167.74,167.74,0,0,0-2.23,19.81,97.28,97.28,0,0,1-10.27,9.69,23.86,23.86,0,0,1-15.2,5.2q-10.6,0-15.5-8.4t-4.9-29.2q0-5.6.4-15.6h24.4q22.59,0,22.6-13.8c0-2.53-.47-4.27-1.4-5.2s-2.47-1.4-4.6-1.4h-22.4q26-23,26-54,0-11.21-4.8-18.6t-13.2-7.4q-11.4,0-21.3,10.8t-16.9,29a193.9,193.9,0,0,0-10.4,40.2h-11.4q-9,0-9,11.2,0,4.8,2.1,7t8.1,2.2h7.8q-.6,9-.6,17.8,0,6.45.52,12.17a7.93,7.93,0,0,0-3.32,2.43,67.79,67.79,0,0,1-19.9,16.5q-11.51,6.3-20.5,6.3-14,0-19-9.2,23.59-5.8,33.5-15.7a32.34,32.34,0,0,0,9.9-23.7q0-11.81-7-18.7t-18.6-6.9a40.47,40.47,0,0,0-23.3,7,47.54,47.54,0,0,0-16.1,18.9,57.82,57.82,0,0,0-5.8,25.7c0,.77,0,1.53,0,2.28q-11.91,8-24.64,17.92,1-6.41,1.9-12.1t1.7-10.5q4.2-25.2,5-31.4a28.78,28.78,0,0,0,.2-3.8q0-4.39-2.1-5.9t-7.1-1.5a43.3,43.3,0,0,0-8.8.8c-.67-2.93-1.5-5-2.5-6.1s-3-1.7-5.9-1.7q-13.8,0-26.1,8.7a63.16,63.16,0,0,0-19.7,23,67.94,67.94,0,0,0-3.49,8c-3.11,2.22-5.81,3.34-8.11,3.34q-5,0-5-7a74.86,74.86,0,0,1,1.6-10q1.8-10,1.8-12.6,0-13-13-13-6.6,0-14.5,4.6t-16.1,15.4q-8.19,10.8-14.8,28a145.2,145.2,0,0,1,2-14.8q1.2-6,3.2-14,3-11.21,3-14.4c0-1.87-.53-3.13-1.6-3.8s-2.93-1-5.6-1q-7.4,0-11.5,2.7a15,15,0,0,0-5.9,8.5,162,162,0,0,0-7.35,45.4,67.47,67.47,0,0,1-15.14,11.3q-11.5,6.3-20.5,6.3-14,0-19-9.2,23.6-5.8,33.5-15.7a32.34,32.34,0,0,0,9.9-23.7q0-11.81-7-18.7t-18.6-6.9a40.44,40.44,0,0,0-23.3,7,47.46,47.46,0,0,0-16.1,18.9,57.82,57.82,0,0,0-5.8,25.7,59.58,59.58,0,0,0,.6,8.53c-2.73,3-5.1,5.39-7.1,7.17q-5.5,4.9-9.5,4.9-5.8,0-5.8-8,0-5.6,3.8-23,4.4-20.4,4.4-28.2,0-13-13-13-6.6,0-14.5,4.6t-16.1,15.4q-8.2,10.8-14.8,28a142.43,142.43,0,0,1,2-14.8q1.2-6,3.2-14,3-11.21,3-14.4c0-1.87-.54-3.13-1.6-3.8s-2.94-1-5.6-1q-7.41,0-11.5,2.7a15,15,0,0,0-5.9,8.5,162.12,162.12,0,0,0-7.38,47.12,183.63,183.63,0,0,1-27.92,8,170.32,170.32,0,0,1-35.1,3.9q-25.2,0-36.8-6.3t-11.6-18.7a22.65,22.65,0,0,1,4.9-13.9q4.9-6.49,15.8-10.7t27.5-4.6q12-.19,12-13.4,0-4.2-1.8-6t-6.2-2q-17.4-.6-25.1-6.7a19,19,0,0,1-7.7-15.5q0-12.19,10.2-19.4t27.2-7.2q12.6,0,18,4.5a14.51,14.51,0,0,1,5.4,11.7,72.41,72.41,0,0,1-1,9,30.49,30.49,0,0,0-1,7.4q0,5,3.2,7.5c2.13,1.67,5.07,2.5,8.8,2.5q8,0,12.3-7.3t4.3-19.1q0-17-12.4-27.7t-37.2-10.7a92.34,92.34,0,0,0-33.8,6q-15.41,6-24.5,17.1a39.06,39.06,0,0,0-9.1,25.5,31.7,31.7,0,0,0,6.3,19.2q6.3,8.59,18.1,12-21.6,5.4-32.7,17.5t-11.1,29.3a34.47,34.47,0,0,0,8.3,22.6q8.3,10,25.3,15.7t42.2,5.7a213.74,213.74,0,0,0,37-3.3q18.41-3.22,30.09-8.67a33,33,0,0,0,1.21,4q3.09,8,10.7,8,6.19,0,9.1-3.3t5.1-12.7a137.39,137.39,0,0,1,7.9-23.2,106.68,106.68,0,0,1,9.6-17.7q4.7-6.7,7.3-6.7c1.46,0,2.2,1.07,2.2,3.2q0,4.8-2.6,17.4-2.81,14.4-2.8,20,0,11.21,5.2,17.1t15.4,5.9a38.82,38.82,0,0,0,22.5-6.8,80.85,80.85,0,0,0,10.87-9,35.59,35.59,0,0,0,3.83,4.42q11.6,11.4,32.6,11.4a58,58,0,0,0,28.9-7.6,94,94,0,0,0,10.3-6.68A36.13,36.13,0,0,0,653,549.1q3.1,8,10.7,8,6.21,0,9.1-3.3t5.1-12.7a143.66,143.66,0,0,1,7.8-23.2,94.62,94.62,0,0,1,9.7-17.7q4.9-6.7,7.9-6.7c1.47,0,2.2,1.07,2.2,3.2,0,.93-.13,2.73-.4,5.4a30.53,30.53,0,0,0-.6,6q0,9.2,5.5,14.6t16.1,5.4a32.29,32.29,0,0,0,11.82-2.21q.35,13.65,7.38,22.21,7.4,9,19.8,9a24.15,24.15,0,0,0,19.8-11.2l-1.2,7.8q-30.8,23.81-42,40.1t-11.2,30.5q0,10.2,6.4,16.5t16.6,6.3q19,0,31.3-23.7t19.9-65.1l12.8-8.6q6.79-4.76,20.27-13.87a36.16,36.16,0,0,0,7.13,9.87q11.6,11.4,32.6,11.4a58,58,0,0,0,28.9-7.6q13.5-7.61,20.9-16.6c.15-.17.27-.36.41-.54q9.21,24.74,36,24.74a41.23,41.23,0,0,0,23.4-6.8,78.45,78.45,0,0,0,9.48-7.47,31.85,31.85,0,0,0,2.62,5.07q5.89,9.2,18.9,9.2,13.61,0,28.84-15.17a36.94,36.94,0,0,0,3.45,4.07q10.9,11.1,30.5,11.1,12.19,0,25.3-6.3a63.93,63.93,0,0,0,13-8.36,31.72,31.72,0,0,0,2.76,5.46q5.89,9.2,18.9,9.2,13.88,0,29.43-15.74a37.69,37.69,0,0,0,3.77,4.34q11.6,11.4,32.6,11.4a57.93,57.93,0,0,0,28.9-7.6,94,94,0,0,0,10.3-6.68,36.08,36.08,0,0,0,1.7,6.28q3.09,8,10.7,8,6.2,0,9.1-3.3t5.1-12.7a137.39,137.39,0,0,1,7.9-23.2,106.68,106.68,0,0,1,9.6-17.7q4.69-6.7,7.3-6.7c1.46,0,2.2,1.07,2.2,3.2q0,4.8-2.6,17.4-2.81,14.4-2.8,20,0,11.21,5.2,17.1t15.4,5.9a38.82,38.82,0,0,0,22.5-6.8,80,80,0,0,0,8.11-6.42,33.73,33.73,0,0,0,1.48,5.22q3.11,8,10.7,8,6.21,0,9.11-3.3t5.09-12.7a137.41,137.41,0,0,1,7.91-23.2,107.47,107.47,0,0,1,9.59-17.7q4.71-6.7,7.3-6.7c1.47,0,2.2,1.07,2.2,3.2q0,4.8-2.59,17.4-2.8,14.4-2.81,20,0,11.21,5.2,17.1t15.41,5.9a38.87,38.87,0,0,0,22.5-6.8,81,81,0,0,0,10.52-8.68,36.88,36.88,0,0,0,3.17,4q10.61,11.5,29.8,11.5,12.6,0,21.7-4.8a38.92,38.92,0,0,0,14.7-13.4,22.13,22.13,0,0,0,3.4-12.4A12.41,12.41,0,0,0,1518.17,519.9ZM955.39,429q3.3-13.31,7-20.8t6.7-7.5q4.39,0,4.4,11.8,0,10.39-5.9,23.1a68.45,68.45,0,0,1-17.7,22.9A277.29,277.29,0,0,1,955.39,429ZM592.1,511.9q0-12.19,5.1-20.8t12.5-8.6a7.35,7.35,0,0,1,5.7,2.3,8.7,8.7,0,0,1,2.1,6.1q0,7.39-6.8,13t-18.6,8.4ZM767,615.7q-6.3,12-11.3,12a4.62,4.62,0,0,1-4.3-2.2,10.85,10.85,0,0,1-1.3-5.6q0-8,6.8-18.6t22.2-23.8Q773.29,603.69,767,615.7Zm20.1-100.4q-1.8,10.4-6,16t-8.8,5.6a8.5,8.5,0,0,1-6.9-3q-2.5-3-2.5-9.2a54.19,54.19,0,0,1,4.2-21.2,43,43,0,0,1,11.2-16.1q7-6.11,15.2-6.3Zm70.4-3.4q0-12.19,5.1-20.8t12.5-8.6a7.35,7.35,0,0,1,5.7,2.3,8.7,8.7,0,0,1,2.1,6.1q0,7.39-6.8,13t-18.6,8.4Zm329.19,0q0-12.19,5.1-20.8t12.5-8.6a7.35,7.35,0,0,1,5.7,2.3,8.7,8.7,0,0,1,2.1,6.1q0,7.39-6.8,13t-18.6,8.4Zm277,0q0-12.19,5.1-20.8t12.5-8.6a7.35,7.35,0,0,1,5.7,2.3,8.7,8.7,0,0,1,2.1,6.1q0,7.39-6.8,13t-18.6,8.4Z" transform="translate(-331.1 -381.5)" style="fill:url(#Dégradé_sans_nom_20)"/></svg>