<?xml version="1.0" standalone="no"?><svg xmlns="http://www.w3.org/2000/svg" viewBox="0 0 1440 320"><path fill="#cccfd8" fill-opacity="1" d="M0,256L26.7,240C53.3,224,107,192,160,165.3C213.3,139,267,117,320,144C373.3,171,427,245,480,272C533.3,299,587,277,640,245.3C693.3,213,747,171,800,176C853.3,181,907,235,960,261.3C1013.3,288,1067,288,1120,272C1173.3,256,1227,224,1280,213.3C1333.3,203,1387,213,1413,218.7L1440,224L1440,320L1413.3,320C1386.7,320,1333,320,1280,320C1226.7,320,1173,320,1120,320C1066.7,320,1013,320,960,320C906.7,320,853,320,800,320C746.7,320,693,320,640,320C586.7,320,533,320,480,320C426.7,320,373,320,320,320C266.7,320,213,320,160,320C106.7,320,53,320,27,320L0,320Z"></path></svg>