<?xml version="1.0" standalone="no"?><svg xmlns="http://www.w3.org/2000/svg" viewBox="0 0 1440 320"><path fill="#a2d9ff" fill-opacity="1" d="M0,32L26.7,42.7C53.3,53,107,75,160,101.3C213.3,128,267,160,320,170.7C373.3,181,427,171,480,149.3C533.3,128,587,96,640,74.7C693.3,53,747,43,800,53.3C853.3,64,907,96,960,122.7C1013.3,149,1067,171,1120,176C1173.3,181,1227,171,1280,165.3C1333.3,160,1387,160,1413,160L1440,160L1440,320L1413.3,320C1386.7,320,1333,320,1280,320C1226.7,320,1173,320,1120,320C1066.7,320,1013,320,960,320C906.7,320,853,320,800,320C746.7,320,693,320,640,320C586.7,320,533,320,480,320C426.7,320,373,320,320,320C266.7,320,213,320,160,320C106.7,320,53,320,27,320L0,320Z"></path></svg>