<svg id="Calque_4" data-name="Calque 4" xmlns="http://www.w3.org/2000/svg" viewBox="0 0 569.35 198.35"><path d="M739.28,100.08h0a35.49,35.49,0,0,0-34.55-36.42h0a35.49,35.49,0,0,0,36.42-34.55h0A35.49,35.49,0,0,0,775.7,65.53h0A35.49,35.49,0,0,0,739.28,100.08Z" transform="translate(-374.42 -29.11)" style="fill:#fff"/><path d="M409,183.41h0A35.49,35.49,0,0,0,374.42,147h0a35.51,35.51,0,0,0,36.42-34.56h0a35.5,35.5,0,0,0,34.55,36.43h0A35.49,35.49,0,0,0,409,183.41Z" transform="translate(-374.42 -29.11)" style="fill:#fff"/><path d="M484.17,218h0a22.49,22.49,0,0,0-25.73-18.72h0a22.5,22.5,0,0,0,18.72-25.73h0a22.51,22.51,0,0,0,25.73,18.72h0A22.5,22.5,0,0,0,484.17,218Z" transform="translate(-374.42 -29.11)" style="fill:#fff"/><path d="M651,221.36h0a7.11,7.11,0,0,0-7.81-6.35h0a7.12,7.12,0,0,0,6.35-7.81h0a7.12,7.12,0,0,0,7.81,6.35h0A7.12,7.12,0,0,0,651,221.36Z" transform="translate(-374.42 -29.11)" style="fill:#fff"/><path d="M702.75,217.63h0a7.13,7.13,0,0,0-5.33-8.54h0a7.11,7.11,0,0,0,8.54-5.32h0a7.12,7.12,0,0,0,5.33,8.54h0A7.11,7.11,0,0,0,702.75,217.63Z" transform="translate(-374.42 -29.11)" style="fill:#fff"/><path d="M550.24,227.46h0a14.49,14.49,0,0,0-17.94-9.91h0a14.49,14.49,0,0,0,9.91-17.94h0a14.49,14.49,0,0,0,17.94,9.91h0A14.49,14.49,0,0,0,550.24,227.46Z" transform="translate(-374.42 -29.11)" style="fill:#fff"/><path d="M631.35,181.32h0a14.5,14.5,0,0,0-19.65-5.83h0a14.48,14.48,0,0,0,5.82-19.64h0a14.49,14.49,0,0,0,19.65,5.82h0A14.49,14.49,0,0,0,631.35,181.32Z" transform="translate(-374.42 -29.11)" style="fill:#fff"/><path d="M719.81,189.56h0a14.5,14.5,0,0,0-15-14h0a14.49,14.49,0,0,0,14-15h0a14.49,14.49,0,0,0,15,14h0A14.49,14.49,0,0,0,719.81,189.56Z" transform="translate(-374.42 -29.11)" style="fill:#fff"/><path d="M797.24,219.1h0A14.49,14.49,0,0,0,787.69,201h0a14.49,14.49,0,0,0,18.13-9.55h0a14.49,14.49,0,0,0,9.55,18.13h0A14.49,14.49,0,0,0,797.24,219.1Z" transform="translate(-374.42 -29.11)" style="fill:#fff"/><path d="M567.87,163.53h0a22.51,22.51,0,0,0-20.12-24.66h0a22.49,22.49,0,0,0,24.66-20.11h0a22.5,22.5,0,0,0,20.12,24.65h0A22.5,22.5,0,0,0,567.87,163.53Z" transform="translate(-374.42 -29.11)" style="fill:#fff"/><path d="M683.18,133.56h0a22.49,22.49,0,0,0-27.85-15.38h0a22.49,22.49,0,0,0,15.38-27.85h0a22.5,22.5,0,0,0,27.85,15.38h0A22.5,22.5,0,0,0,683.18,133.56Z" transform="translate(-374.42 -29.11)" style="fill:#fff"/><path d="M784,164.81h0a22.5,22.5,0,0,0-16.72-27.08h0A22.5,22.5,0,0,0,794.35,121h0a22.49,22.49,0,0,0,16.71,27.07h0A22.5,22.5,0,0,0,784,164.81Z" transform="translate(-374.42 -29.11)" style="fill:#fff"/><path d="M852.86,208.64h0a22.5,22.5,0,0,0-16.72-27.08h0a22.5,22.5,0,0,0,27.08-16.71h0a22.49,22.49,0,0,0,16.71,27.07h0A22.5,22.5,0,0,0,852.86,208.64Z" transform="translate(-374.42 -29.11)" style="fill:#fff"/><path d="M519.84,112h0A35.5,35.5,0,0,0,504,64.32h0a35.5,35.5,0,0,0,47.64-15.85h0a35.5,35.5,0,0,0,15.85,47.64h0A35.5,35.5,0,0,0,519.84,112Z" transform="translate(-374.42 -29.11)" style="fill:#fff"/><path d="M896.13,181.9h0a35.5,35.5,0,0,0-15.85-47.64h0a35.49,35.49,0,0,0,47.63-15.85h0a35.51,35.51,0,0,0,15.85,47.64h0A35.48,35.48,0,0,0,896.13,181.9Z" transform="translate(-374.42 -29.11)" style="fill:#fff"/></svg>