<svg id="Calque_41" data-name="Calque 41" xmlns="http://www.w3.org/2000/svg" viewBox="0 0 670.74 727.63"><rect x="168.87" y="156.86" width="76" height="460" style="fill:#fff;stroke:#000;stroke-miterlimit:10;stroke-width:5px"/><circle cx="206.87" cy="156.86" r="38" style="fill:#fff;stroke:#000;stroke-miterlimit:10;stroke-width:5px"/><circle cx="206.87" cy="616.86" r="38" style="fill:#fff;stroke:#000;stroke-miterlimit:10;stroke-width:5px"/><path d="M682.72,528.28c92.08-74.22,227.09-62.16,304.47,28.33,78.78,92.13,68,230.69-24.18,309.47-72.75,62.22-174.46,68.56-252.81,23.1l43.7-62.7a143.52,143.52,0,1,0-21.76-240.4l-.86.54c-92.08,74.22-227.09,62.16-304.47-28.33C348,466.16,358.85,327.6,451,248.82c72.75-62.22,174.46-68.56,252.81-23.1l-43.7,62.7a143.52,143.52,0,1,0,21.76,240.4Z" transform="translate(-371.63 -193.64)" style="fill:#fff;stroke:#000;stroke-miterlimit:10;stroke-width:5px"/><circle cx="310.97" cy="63.7" r="38" style="fill:#fff;stroke:#000;stroke-miterlimit:10;stroke-width:5px"/><circle cx="359.76" cy="663.93" r="38" style="fill:#fff;stroke:#000;stroke-miterlimit:10;stroke-width:5px"/><rect x="439.87" y="104.86" width="76" height="460" style="fill:#fff;stroke:#000;stroke-miterlimit:10;stroke-width:5px"/><circle cx="477.87" cy="104.86" r="38" style="fill:#fff;stroke:#000;stroke-miterlimit:10;stroke-width:5px"/><circle cx="477.87" cy="564.86" r="38" style="fill:#fff;stroke:#000;stroke-miterlimit:10;stroke-width:5px"/></svg>