<svg id="Calque_43" data-name="Calque 43" xmlns="http://www.w3.org/2000/svg" viewBox="0 0 510.25 623"><path d="M887.5,298.5v460a38,38,0,0,1-76,0v-460Z" transform="translate(-457.4 -258)" style="fill:#3e7662;stroke:#000;stroke-miterlimit:10;stroke-width:5px"/><path d="M857.55,729.89C926.81,719.21,975,652.52,963.44,583.41a127,127,0,0,0-88.52-100.63c-27-8.18-53.2,15-48.9,42.83h0a38.82,38.82,0,0,0,27,31,50,50,0,1,1-58,73.09l-60.6,48A127,127,0,0,0,857.55,729.89Z" transform="translate(-457.4 -258)" style="fill:#fff;stroke:#000;stroke-miterlimit:10;stroke-width:5px"/><circle cx="307.35" cy="395.15" r="38" style="fill:#fff;stroke:#000;stroke-miterlimit:10;stroke-width:5px"/><polyline points="354.1 324.62 354.1 40.5 430.1 40.5 430.1 337.77" style="fill:#3e7662;stroke:#000;stroke-miterlimit:10;stroke-width:5px"/><path d="M851.5,517.88a38.14,38.14,0,0,1-36.87,38,142.81,142.81,0,0,0-82.49,30.21l-.86.54A218.72,218.72,0,0,1,580.5,634.74v-76.2a142.92,142.92,0,0,0,101.36-29.72l.86-.54A218.48,218.48,0,0,1,812.24,479.9,38,38,0,0,1,851.5,517.88Z" transform="translate(-457.4 -258)" style="fill:#fff;stroke:#000;stroke-miterlimit:10;stroke-width:5px"/><path d="M559.5,514.73" transform="translate(-457.4 -258)" style="fill:#fff;stroke:#000;stroke-miterlimit:10;stroke-width:5px"/><circle cx="392.1" cy="40.5" r="38" style="fill:#fff;stroke:#000;stroke-miterlimit:10;stroke-width:5px"/><path d="M616.5,840.5v-460h-76v460a38,38,0,0,0,76,0Z" transform="translate(-457.4 -258)" style="fill:#3e7662;stroke:#000;stroke-miterlimit:10;stroke-width:5px"/><path d="M581.58,383.54c-72.81,6.16-127.93,69.58-121.11,139.32,4.84,49.58,38.89,89.75,84.47,106.22,27.45,9.92,56.44-11.47,54.06-39.57h0c-1.25-14.81-11.34-27.38-25.75-32.72-18-6.67-31.35-22.75-32.94-42.51-2.14-26.6,18.33-50.59,46-53.83,22.62-2.65,43.3,8.91,52.75,27.16l66.61-44C680.5,403.92,633.31,379.17,581.58,383.54Z" transform="translate(-457.4 -258)" style="fill:#fff;stroke:#000;stroke-linejoin:round;stroke-width:5px"/><polyline points="83.1 257 83.1 122.5 159.1 122.5 159.1 290.06" style="fill:#3e7662;stroke:#000;stroke-miterlimit:10;stroke-width:5px"/><circle cx="121.1" cy="122.5" r="38" style="fill:#fff;stroke:#000;stroke-miterlimit:10;stroke-width:5px"/><ellipse cx="673.21" cy="466.12" rx="40.53" ry="38.87" transform="translate(-494.28 -199.61) rotate(-4.83)" style="fill:#fff;stroke:#000;stroke-miterlimit:10;stroke-width:5px"/></svg>